<svg xmlns="http://www.w3.org/2000/svg" enable-background="new 0 0 2000 2000" viewBox="0 0 2000 2000"><switch><g><path fill="#c0e9ff" d="M1572.4 1601.9c-7.7 11 16.6 33.7 45 37.4 24.5 3.2 31.3-10.5 64-9.7 30.1.7 42 12.7 59.6 7.7 12.1-3.4 19.7-12.9 18.4-20.8-2.9-18.5-53.2-26.7-59.1-27.7-22-3.6-41.9-1.4-81.8 3C1577.4 1596.3 1573.7 1600.1 1572.4 1601.9zM987.6 1391.7c-9.7 13.6 12.1 35.1 40.5 41.3 18.2 4 20.6-2.3 74.9-4.6 28-1.2 39.6 0 51.6-5.2 10.3-4.4 21.7-13.3 18.8-21.6-7.6-21.6-111.9-37.9-167.3-20.5C997.3 1384 990.8 1387.2 987.6 1391.7z"/><path fill="#91c4ff" d="M1081.3,1398.1c-4.8,14.5-35.1-1.6-35.1-1.6s-37-673.2-42.9-723.8c-4.6-38.8-18.3-276.8-24.4-385.5
					c-1.9-33-3-54.1-3-54.1l68.5-7.4c0,0,9.2,205.9,6.8,302.3c-2,83.3,25.5,661.5,29.9,826.4
					C1081.8,1380.4,1081.9,1396.1,1081.3,1398.1z"/><ellipse cx="1010.1" cy="229.5" fill="#6193ff" rx="34.5" ry="11" transform="rotate(-6.174 1009.734 229.464)"/><path fill="#82b3ff" d="M1081.3,1398.1c-4.8,14.5-35.1-1.6-35.1-1.6s-37-673.2-42.9-723.8c-4.6-38.8-18.3-276.8-24.4-385.5
					c9.3,8.1,17.4,19.6,19.5,22.7c54.6,78-14.1,157.7,18.8,298.4c5,21.4,10.5,36.2,14,66.1c6.4,55-3.8,76.1-4.9,129.8
					c-1.2,61.6,11.9,53,15.8,135.5c2.9,62.8-4.2,78.1,2,131.7c5.8,49.6,18.5,53.8,20.2,94c2.5,57.6-18.3,60.1-14.7,105.3
					c3.1,38.5,20.4,61.7,31.4,83.8C1081.8,1380.4,1081.9,1396.1,1081.3,1398.1z"/><path fill="#91c4ff" d="M1723,480.1c0,0-32.1,359.4-33.4,406.6s-30.7,723-30.7,723s20.4,11.1,33.7-5.5
					c8.8-11,45.2-755.3,60.2-843.3s34-277.9,34-277.9L1723,480.1z"/><ellipse cx="1754.9" cy="481.5" fill="#6193ff" rx="10.2" ry="31.9" transform="rotate(-87.4 1754.882 481.502) scale(1.00003)"/><path fill="#a7e6ff" d="M1780.9,537.1l-33.6,269.6c0,0-18.1,16.4-52.6-2.4c0,0-103.4-5.2-262.5-55.3
					c-62.6-19.7-133.9-46.4-210.9-82.5c-12.2-5.7-29.4-15-48.5-25.6c-42.3-23.6-93.9-54.2-121.8-69.3c0,0-44.5,26-56.1-8.4
					l-12.4-213.5c0,0,27.5,30.8,66.6,3.1c0,0,36.3,22.7,104.9,52.7c52,22.7,122.6,49.7,210.1,74.1c103.8,29,218.1,47.2,289.2,52.4
					c32.3,2.4,55.6,2,65-1.2C1718.2,530.6,1736.1,562.4,1780.9,537.1z"/><path fill="#99d7ff" d="M1172.8 640.8c-42.3-23.6-93.9-54.2-121.8-69.3l-1.9-218.8c0 0 36.3 22.7 104.9 52.7-29.1 42.8 67.1 27.3 66.5 63.2-.6 35.9-28.8 23.9-84.9 74.1C1095 579.1 1154.1 602.1 1172.8 640.8zM1718.2 530.6c0 0-20.7 229.6-23.5 273.6 0 0-103.4-5.2-262.5-55.3 1.2-17.2 12.2-29.6 43-28 91.3 4.9 112-33.8 99.4-60.2-12.6-26.4-69.8-91.2-39.4-97.8 30.4-6.6 101.2 19.8 111.6 2.7 4.5-7.4 4.9-21 6.4-33.8C1685.5 534.2 1708.8 533.9 1718.2 530.6z"/><path fill="#91c4ff" d="M1672.6,735.2c7.7,0,7.7-12,0-12C1664.9,723.2,1664.9,735.2,1672.6,735.2L1672.6,735.2z"/><path fill="#ffe6c4" d="M235.7,1701.6c56.9,150.3,296,136,315.7,134.5c136.7-10,138.5-78.6,284.5-95.5
					c142.4-16.5,177.2,44.5,327.4,21.7c70.7-10.7,153.7-57.9,157.6-115.4c4.4-65.4-34.8-157.7-186.3-184.8
					c-171.3-30.6-222.8,61.1-434.3,48.8c-221-12.8-366.3-88.6-436.6-20.9C211.4,1540.7,210.1,1634,235.7,1701.6z"/><g><path fill="#001c1f" d="M645,1074.2c0,0-13.7,106.1-27.8,206.3c-12.3,87.2-24.8,170-28.9,174.8c-8.7,10.3-64.2-14.3-69.7-24.6
							c-5.5-10.3,58.1-363.7,58.1-363.7l5.3,0.6L645,1074.2z"/><path fill="#1f1c75" d="M588.3,1455.3c-8.7,10.3-64.2-14.3-69.7-24.6C518.6,1430.7,554.5,1412.1,588.3,1455.3z"/><path fill="#ff9172" d="M543,1432c0,0-7.9,42.3-19.9,59.6c-11.9,17.2,15.2,10.6,25.1,26.5s21,24.5,33.3,18.5s27.5-11.9,27.5-11.9
							s-4.6-7.9-13.9-6s-17.2,7.9-17.2,7.9s-23.8-32.5-24.5-41.4c-0.7-8.9,15.2-41.3,15.2-41.3S559.4,1430.1,543,1432z"/><path fill="#1f1c75" d="M527.6,1468.3c0,0,16.7,25.7,26,16.8C562.9,1476.3,527.6,1468.3,527.6,1468.3z"/><path fill="#1f1c75" d="M617.8,1527.9c0,0-2.6-15.2-17.2-15.9c-14-0.6-31.9,16.7-29,25.3c-6.2-0.4-12.9-3.7-17.7-12.4
						c-5.4-9.8-13-15.7-17-18.3c0.5-8.7,0.4-25-7.2-27.5c-10.5-3.4-9.7,20.4-11.4,24.4c-1.7,4,18.2,8.6,18.2,8.6s0.1-1.1,0.3-3
						c4,2.8,10.6,8.3,15.3,16.9c5.5,10.1,13.5,13.6,20.6,13.6c0.2,0,0.3,0,0.5,0C581.4,1544.3,617.8,1527.9,617.8,1527.9z"/><path fill="#ea7a5c" d="M669.9,877.6c0,0,13.3-24.5,27.5-21.9s8.6,18.4,0,26.2s-21.9,32.6-25.7,32.8
							c-3.9,0.2-13.3-5.8-13.7-11.8c-0.4-6,7.1-31.7,5.1-40.7c-2.1-9,5.7-1.3,6.1,3C669.5,869.5,669.9,877.6,669.9,877.6z"/><path fill="#e12f57" d="M655.9,894.3c0,0,4.1,14.8,18.7,15.3c14.6,0.5-28.4,61-28.4,61l-30.6-20.9L655.9,894.3z"/><g><path fill="#ff9172" d="M631.6,1491.3c1.3,7.2,1.6,13.2-0.4,29.3s-14.3,27.5,10.1,24.3c24.4-3.2,32.8-3.7,58-0.3
							s23.6-12.3,24.4-17.5c0.9-5.3-5.5,4.8-22-0.2s-34.4,2.2-44.4-22.7c-9.9-25-8.8-40.5-8.8-40.5s-16.2-4.8-22.4,5.8
							C626.1,1469.4,630.5,1485.7,631.6,1491.3z"/><path fill="#1f1c75" d="M631.2 1506.1c0 0 28-15.3 30.1-8.5C663.5 1504.5 631.2 1506.1 631.2 1506.1zM712 1520.1c-11.3-1-15.3 16.2-16.2 21.7-15.4-1.7-34.7-.9-43.1-.4-3.9-5.2-15-18.9-22.2-16.7-8.9 2.7-7.8 18.1-7.8 18.1s-.9 11.8 31.1.7c9.1-.5 28.5-1.3 43.4.6 16.6 6.3 21.9 1.8 28.5-9.2C732.3 1523.5 725.4 1521.2 712 1520.1z"/><path fill="#241c43" d="M677.6,1469.1c-22.6,7.9-77.2,21-78.4,14.7c-0.2-1.2-0.2-1.9-0.2-1.9c1.8-35.3-0.9-111.5-4.2-178.1
							c-4.2-85.4-10.5-175.4-13.4-215.3c-1-13.5-1.6-21.3-1.6-21.3c4.4-16,60-15.4,63-8.7C645.7,1065.1,677.6,1469.1,677.6,1469.1z"/></g><g><path fill="#ff7468" d="M581.6,884c0,0,4,17.6,35.4,21.2c0,0,8.7,48.5,11.3,63.8c9.2,55.7,12,65,25.1,91.1
						c6.4,12.8-69.6,16.5-80.1,5.6C562.7,1054.9,585.8,913.9,581.6,884z"/></g><g><path fill="#ff5657" d="M610.5,910.8c0,0,62.9,47.5,68.8,59.4l-10.8,27.3c-18.7-11.8-64.6-32.3-67.6-47.3
						S593.2,906.1,610.5,910.8z"/></g><g><path fill="#fea58c" d="M692.5,910.1c0,0,25.3-47.9,14.3-60.1s-15.5,5.4-17,21.9l-2.6,8.9c0,0-0.3-23.5-6.2-19.8
							c0,0-4,28.2-4.6,40C675.7,912.8,692.5,910.1,692.5,910.1z"/><path fill="#ff5657" d="M654.9,974.6c0,0,10-84,21.4-83.1c11.4,0.9,22.3,5.5,27.6,2.4c0,0-8.5,67.9-35.3,103.7L654.9,974.6z"/></g><g><path fill="#ea7a5c" d="M605,873.6c0,0-9.4,12-6.9,27.3s-15.9,4.9-15.9,4.9l9.1-43.5L605,873.6z"/><path fill="#fea58c" d="M606.2,783.5c0,0,20.2,10.7,24,30.4c3.1,16.3,3.6,45.1-9,56.9c-4.3,4.1-10.7,5-16.2,2.8
							c-6.5-2.7-15.8-8.2-18.5-18.7C582.2,838.4,564.6,810.2,606.2,783.5z"/><path fill="#ea7a5c" d="M626.4 821.4c0 0 6.9 18.7 12.3 22.9 0 0-8.5 5.9-12.3 0C622.7 838.4 626.4 821.4 626.4 821.4zM624.8 862.3c-.5 0-13.5-.1-16.3-8.7-.2-.5.1-1.1.6-1.2.5-.2 1.1.1 1.2.6 2.4 7.2 14.3 7.3 14.5 7.3.5 0 1 .4 1 1C625.8 861.9 625.3 862.3 624.8 862.3z"/><path fill="#7e1c54" d="M614,821.4c0,0.7,0,1.4,0,2.1c0,1,0.4,2.1,1.1,2.8c0.7,0.7,1.8,1.2,2.8,1.1c1,0,2.1-0.4,2.8-1.1
								c0.7-0.8,1.1-1.7,1.1-2.8c0-0.7,0-1.4,0-2.1c0-1-0.4-2.1-1.1-2.8c-0.7-0.7-1.8-1.2-2.8-1.1c-1,0-2.1,0.4-2.8,1.1
								C614.4,819.4,614,820.3,614,821.4L614,821.4z"/><path fill="#671c54" d="M623.4,798.4c0,0-4.6-3.9-16.4-2.4s-12.5,18.2-8.7,29.4c2.6,7.7-0.6,30.7-2.1,38.9
							c-8.4,46.9,16.1,63.6,10.8,122.9c-5.3,59.3-61.8,38.9-76.2,29.5c-12.8-8.4-28.6-34.2-29.6-54.4c-0.1-2.5,0-4.9,0.3-7.2
							c0,0,28.2,12.8,43.2-29.1c14.9-41.9,19.2-65,10.1-91.4c-8.8-25.7-18.4-55.9,42.5-57.1c9.4-0.2,18.2,5.7,23.3,11.3
							C625.3,793.8,627,798.5,623.4,798.4z"/><path fill="#ea7a5c" d="M606.9,819.3c-0.1,0-0.3,0-0.4-0.1c-0.5-0.2-0.7-0.8-0.5-1.3c4.9-10.2,16.4-6.4,16.6-6.3
							c0.5,0.2,0.8,0.7,0.6,1.2c-0.2,0.5-0.7,0.8-1.2,0.6c-0.4-0.1-10-3.3-14.2,5.3C607.6,819.1,607.2,819.3,606.9,819.3z"/><path fill="#4e1c54" d="M620.7,788.8c-9-1.6-22.8-7.1-35-3.3c-9.7,3.1-17,11.5-20.7,31.4c-6.6,35.7,8.5,53.4,14.8,90.1
						c3.5,20.4,11.5,67.6-13.4,76.4c-17.2,6.1-45.1-7.8-65.2-21.2c-0.1-2.5,0-4.9,0.3-7.2c0,0,28.2,12.8,43.2-29.1
						c14.9-41.9,11.7-58.6,2.7-85.1c-8.8-25.7-10.9-62.3,50-63.4C606.8,777.3,615.6,783.2,620.7,788.8z"/></g></g><g><path fill="#de4d08" d="M421.5,1741.9"/><path fill="#ed8c76" d="M305.7,1547.5c0,0-22.4,35-21.3,38.7s15.3,14.4,23.1,9.8c7.8-4.6,28.6-61.3,28.6-61.3L305.7,1547.5z"/><path fill="#2e1c53" d="M289.8,1556c4.6-4.1,12.3-3,15.2,2.3c0.1,0.2,0.2,0.4,0.3,0.6c8.5,18.5,18.8,13.4,18.8,13.4
								s-6.3,11.9,4,18.7c10.3,6.8,29,14.4,39.2,15.8c10.2,1.4,23.8,9.2,20.4,18.7c-3.4,9.5-9.6,9.2-23.6,3.5
								c-14-5.7-91.7-41.4-95.9-44.5s5.3-15.3,13.1-21.6C285.1,1560,287.9,1557.7,289.8,1556z"/><path fill="#3f1c9f" d="M293.5,1541.9c0,0,66.2-150.3,68-187.8l63.2,6.4c0,0-35.1,175.3-55,215.5
								C369.8,1575.9,307.1,1559.4,293.5,1541.9z"/><path d="M269.3,1576.5c0,0-7.7,4.8-6.1,8.8c1.7,4,99.3,50,113,47.5L269.3,1576.5z"/><path fill="#ed978c" d="M381.6,909.2c0,0,3.2,30.5,7.9,39.1c4.7,8.7-22.5,5.5-24.4-3.7c-1.9-9.2-2.9-50.8-2.9-50.8L381.6,909.2
								z"/><path fill="#fea58c" d="M385.7,818c0,0,34.6,34.6,30.2,73.6c-4.2,36.5-46.9,27.4-51.9,10.6C358.6,883.6,330.5,823.8,385.7,818z
								"/><path fill="#ff7c00" d="M363.9,844.4c-10,25.8,10,49.5,11.2,55.1c1.1,5.6-1.6,22.9-7.9,19.6c-1.7-0.9-3.4-1.4-4.9-1.6
								c-4.3-0.6-7.6,1.3-6.9,4.8c1,4.8-1.8,12.4-5.8,5.1c-4-7.3-9.7-14.3-22.3-33.2c-12.5-18.9-15.2-23-14.2-36.5
								c1-13.5-5.7-31.3,20.1-42.3c10.3-4.4,18.1-7.1,24.8-8.3c9.9-1.8,17.2-0.1,26.7,4.2c15.8,7.2,21.7,18.7,21.7,18.7
								S373.9,818.6,363.9,844.4z"/><path fill="#ea7a5c" d="M409.6,854.7c0,0,10.2,13.1,19.4,16.1l-14.2,7.2L409.6,854.7z"/><path fill="#ff7c00" d="M412,898.6c-2.8,0.6-8.9,0.9-15.4-5c-0.4-0.4-0.4-1.1,0-1.5c0.4-0.4,1.1-0.4,1.6,0
								c7.7,6.9,14.3,4.3,14.6,4.2c0.6-0.2,1.2,0,1.5,0.5c0.2,0.5,0,1.1-0.6,1.4C413.6,898.2,413,898.4,412,898.6z"/><path fill="#7e1c54" d="M390.7,856.8c0.8,1.3,1.7,2.5,2.5,3.8c1,1.5,3.4,2,5.1,0.8c1.6-1.2,2.2-3.4,1.1-5
									c-0.8-1.3-1.7-2.5-2.5-3.8c-1-1.5-3.4-2-5.1-0.8C390.2,853.1,389.6,855.2,390.7,856.8L390.7,856.8z"/><path fill="#ff7c00" d="M380.8,858.1c-0.7,0-1.4-0.5-1.5-1.3c-2.2-13.9,11.3-16.4,11.5-16.4c0.8-0.1,1.6,0.4,1.7,1.2
							c0.1,0.8-0.4,1.6-1.2,1.7c-0.5,0.1-10.7,2-9,13c0.1,0.8-0.4,1.6-1.3,1.7C380.9,858.1,380.8,858.1,380.8,858.1z"/><path fill="#e60" d="M362.3,917.4c-4.3-0.6-7.6,1.3-6.9,4.8c1,4.8-1.8,12.4-5.8,5.1c-4-7.3-9.7-14.3-22.3-33.2
							c-12.5-18.9-15.2-23-14.2-36.5c1-13.5-5.7-31.3,20.1-42.3c10.3-4.4,18.1-7.1,24.8-8.3c-3.9,3.6-8,8.1-11.9,14
							c-3.3,5-16.6,26.2-13.9,49.7C334.8,893.9,351.8,908,362.3,917.4z"/><g><path fill="#3f1c9f" d="M358.8,1123.6c0,0-0.7,196.8,2.4,239.7c2.5,34.9,63.5-2.8,63.5-2.8c4.1-25.4,16.8-202.1,16.8-202.1
							S381.5,1067.4,358.8,1123.6z"/></g><g><path fill="#ea7a5c" d="M467.1,929c4,12.7-1.1,29.8-11.8,39.7c-11.1,10.2-15.6,18-15.6,18s-13.3-9.9-9.3-13.9
								c8.2-8.1,4.4-22.5,0-33.8c0,0-0.1-8.3,6.6,0.8c5.1,7,6,13.3,6,13.3s9.8-20.9,10.7-29.4C455.2,908.7,466,925.3,467.1,929z"/><path fill="#301c6e" d="M391.8,1018.8c0,0,30.5-56.3,36.6-51.4c6.1,4.9,23,13.5,17.6,21.5c-5.4,8.1-37.4,53-37.4,53
								S386.4,1020.2,391.8,1018.8z"/></g><g><path fill="#5709dc" d="M359.4,1166.4c0,0,22.7,194.3,36.2,235.3c11,33.4,61.1-16.2,61.1-16.2c-2.2-25.6-11.3-212-11.3-212
							S367.7,1106.8,359.4,1166.4z"/></g><g><path fill="#ed8c76" d="M424.7,1596.2c0,0,7.3,38.5,10.6,40.5s20.8,1.5,23.3-6.4c2.6-7.9-13.2-36.5-13.2-36.5L424.7,1596.2z"/><path fill="#2e1c53" d="M424.7,1616.5c1.7-5.1,7.8-7.7,13-5.4c0.8,0.4,1.6,0.8,2.5,1.4c16.8,11.2,21.6,2.2,21.6,2.2
								s0.8,12.7,12.9,13.8c12.1,1.2,31.5-0.8,40.7-4.1s24.5-2.9,26.5,6.6s-3.3,11.9-17.9,13.4c-14.6,1.5-97.5,5.9-102.6,5.2
								c-5.1-0.7-3.3-15.1,0-23.8C422.8,1621.8,423.9,1618.7,424.7,1616.5z"/><path fill="#5709dc" d="M388.1,1603.4c0,0,5.9-133.2,7.5-201.7l61.1-16.2c0,0,21.5,165.6,19.3,209.8
								C476,1595.3,407.8,1614.9,388.1,1603.4z"/><path d="M418.2,1640.4c0,0,103.1,2.6,121.3,0c0,0,6,9.8-118.1,9.1C421.3,1649.5,416.8,1649.4,418.2,1640.4z"/></g><g><path fill="#3f1c7f" d="M412.5,1197.3c-2.7-1.2-5-1.9-7.2-2.3c-10.5-2.2-15.5,2.5-23.1-2.4c-9.1-5.9-49.4-19.6-48.1-26.1
								c21.6-111.7,20.8-202.2,20-227.3c0-1.2,0.4-2.2,1.1-3c1.2-1.4,3.3-2.1,5.2-1.2c15.4,6.5,53.4,24.3,63.9,44.5
								c8.6,16.4,5.2,118.7,32.4,171.1C460.7,1158.2,428.3,1204.2,412.5,1197.3z"/><path fill="#301c6e" d="M405.4,1195c-10.5-2.2-15.5,2.5-23.1-2.4c-9.1-5.9-49.4-19.6-48.1-26.1c21.6-111.7,20.8-202.2,20-227.3
							c0-1.2,0.4-2.2,1.1-3c13.2,11.3,27.7,33.6,33.2,57.6c8.1,35.6-9.9,47.2-10.7,90.8C376.6,1145.5,411,1175.7,405.4,1195z"/></g><g><path fill="#301c6e" d="M375.7,965.1c0,0-13.7,20.1,12.5,53s45.7,44.7,90.1,57.7l2.7-31.5C481,1044.3,398.2,955.5,375.7,965.1z"/></g><g><path fill="#fea58c" d="M478.6,995.1c0,0,5-39.3,21-50.9c16-11.6,7.9-23.4-2.3-20.1s-19.1,8.8-26.3,23c0,0-6.5-19.1-11.1-12.6
								c0,0,1.1,6.5,5.6,21.7s-2.3,29.9-2.3,29.9L478.6,995.1z"/><path fill="#301c6e" d="M444.4,1059.3c0,0-2.3-80.4,7.7-78.3c10.1,2,34.6,2.2,33.8,14.3c-0.8,12.1-7.6,80.6-7.6,80.6
								S439.2,1063.9,444.4,1059.3z"/></g></g><g><path fill="#fea58c" d="M831.8 1265.2c0 0-2.6 10.1-6.8 26.3-5.1 19.7-12.6 48.2-20.5 78.1 0 0 0 0 0 0-7.7 28.9-15.7 59.1-22.4 83.5-6.7 24.5-12 43.1-14.1 49.1 0 0 0 0 0 .1-.7 1.8-1.4 3.3-2.3 4.5 0 0 0 0 0 0-7.9 10.9-23-5.1-28.2-16.4-1.2-2.7-1.9-5.2-1.7-6.9.2-1.8 1.4-10.6 3.3-23.6 2.8-19.3 7-48.1 11.4-77.5 4.6-30.6 9.3-62.1 12.6-84.7 2.9-19.5 4.9-32.3 4.9-32.3H831.8zM772.5 1207.5l-1.1.1C770.9 1202.9 771.4 1203.3 772.5 1207.5z"/><path fill="#fea58c" d="M857.7,1425.6c0,0-16.9,52.2-39,19.4c0.3,0.3-0.4-4.7-1.9-13.3c0,0,0,0,0,0c-1-6.1-2.5-14-4.2-23.3
						c-3.7-20.1-8.7-46.5-13.9-73.5c0,0,0,0,0,0c-5.1-26.4-10.5-53.5-15.1-76.1c-2.2-10.6-4.1-20.1-5.9-28.2
						c-2.3-10.7-4.1-18.8-5.3-23.1l61.4-4.6l5.9,54.9l15.7,146.8L857.7,1425.6z"/><path fill="#a9295b" d="M653.5,1634.7c0,0-5.9,6.5-4.3,10.2c1.6,3.7,49.1,53.6,49.1,53.6s45.8,7.4,46.3-13.7l-88.7-50.1H653.5z"/><path fill="#fea58c" d="M768,1502.1C768,1502.1,768,1502.2,768,1502.1c-0.2,0.4-1,2-2.3,4.6c0,0,0,0,0,0
							c-9.2,18-44.3,84.8-78.3,124.6c0,0,13.3,30.8,23.4,35.3c18.7,8.4,46,18.1,28.8,23.4c0,0-27.5,13.4-42.5,0
							c-15-13.4-28.2-35.6-37-40.1s-10.6-10.7,6.2-27.6c3.9-4,8.3-12.4,13-23.2c15.4-35.3,34.9-96.8,56.5-115.8
							c2.5-2.2,4.8-3.8,6.9-5C764.6,1465.8,768,1502.1,768,1502.1z"/><path fill="#60295b" d="M671.7,1601.8c0,0-2,13-18.2,32.9c0,0-7.1,7.6,10.5,21.8c17.6,14.1,30.8,34.7,38.2,38.1
						c7.4,3.4,34.7,0.3,40-5s3.2-8-14.2-17.9c-17.4-9.9-40.7-24.7-35.1-36.6c5.6-11.8,8.9-15.1,8.9-15.1S683.3,1619.7,671.7,1601.8z
						"/><path fill="#ffc01e" d="M911.4,1388.9c0,7.8-19.5,16.7-38.1,19.2c-6.7,0.9-13.4,1-18.9,0c-21-3.9-39.7-24.6-79.7-5
							c-40,19.6-62.1-24.9-62.1-24.9c25.5-17.8,35.2-91.7,44.9-159.4c9.7-67.7,9.7-66.8,9.7-66.8h77.2c0,0,12.6,31.2,13.7,49
							C859,1218.8,911.4,1378.2,911.4,1388.9z"/><path fill="#ffa31e" d="M873.3,1408.2c-6.7,0.9-13.4,1-18.9,0c-21-3.9-39.7-24.6-79.7-5c-40,19.6-62.1-24.9-62.1-24.9
						c25.5-17.8,35.2-91.7,44.9-159.4c9.7-67.7,9.7-66.8,9.7-66.8h53.4c14.8,25.2-14.4,57.6-13.9,113.4
						C807.2,1337.4,856.6,1377.3,873.3,1408.2z"/><path fill="#ea7a5c" d="M861.8,1018.3c0,0,6.3-22.3,0-31.4c0,0,5.3-4.8,8.9,11.7c0,0,6.3-15.4,2.6-25.5s14.2-6.4,16.8,5.8
							c2.6,12.2-2.6,33.5-14.2,46.8l-11.6,9.8l-6.8-6.1L861.8,1018.3z"/><path fill="#ffd191" d="M873.3,1032.8c0,0-15.8-8.7-20.4-6.6c-4.6,2.1-26.7,71.4-26.7,71.4s8,20.4,18.1,19.6
							C854.3,1116.4,873.3,1032.8,873.3,1032.8z"/><g><path fill="#849324" d="M807.8,1176.6c-1.9,0.4-3.7,0.6-5.4,0.8c-27.6,2.2-16.4-28.3-52.3-14.9c0,0,20.1-50.6,17.9-89.4
							c-2.3-38.8-0.9-71.6-0.9-71.6s10.6-5.4,22.3-7c10.6-1.4,22,0.4,27,12.4c0,0,37.6,87.2,41.2,117
							C861.3,1153.8,841.6,1169.9,807.8,1176.6z"/><path fill="#1a8124" d="M802.4,1177.3c-27.6,2.2-16.4-28.3-52.3-14.9c0,0,20.1-50.6,17.9-89.4c-2.3-38.8-0.9-71.6-0.9-71.6
						s10.6-5.4,22.3-7c-2.9,7.1-6.6,16.4-8.1,29.6c-4.6,42.8,22.9,55,25.5,106.1C807.4,1141.6,808.4,1160.5,802.4,1177.3z"/></g><g><path fill="#fea58c" d="M895.4,1047.6c0,0,5.8-27.6,24.7-49.4c0,0,11.6-12.8,2.6-13.8s-29.4,11.7-32.6,23.4
							c0,0-2.1-11.2-6.3-10.1c0,0,0,21.8,0,43.1L895.4,1047.6z"/><path fill="#ffe0a9" d="M850.2,1115.5c0,0,13.6-59.6,28.2-73.5c0,0,25.1-4.5,28.5,1c3.4,5.4-17.8,27.6-30,85.7
							C876.9,1128.6,869.2,1143.2,850.2,1115.5z"/></g><g><path fill="#ffe0a9" d="M799.7,1024.2c0,0,34,87,65.1,105c4.7,2.7,10.6,0.1,12-5.2c1.7-6.3,3.3-14.8,1.8-20.5
						c-2.6-10.1-50-89.9-63.6-87.5C801.4,1018.3,799.7,1024.2,799.7,1024.2z"/></g><g><path fill="#ea7a5c" d="M807.8,966.6c0,0-7.6,26.1-6.7,38.8c0.9,12.8-19.4-11.4-19.4-11.4l15.3-32L807.8,966.6z"/><path fill="#fea58c" d="M809.4,887.3c6.1,2.8,11.1,7.6,14.4,13.5c8,14,23.1,43.2,4.9,64c-19.9,22.9-56.2-31.7-56.2-40.4
							C772.6,916.7,782,874.5,809.4,887.3z"/><path fill="#ea7a5c" d="M832.6,919.6c0,0,5.8,13.6,14.5,18.2c0,0-7.3,5.6-11.3,5.3L832.6,919.6z"/><path fill="#de4d08" d="M829.1,958.2c2.6,0,4.5-0.7,4.6-0.7c0.4-0.1,0.6-0.6,0.4-0.9c-0.1-0.4-0.6-0.6-0.9-0.4
							c-0.4,0.2-9.9,3.6-14.5-6.6c-0.2-0.4-0.6-0.5-1-0.4c-0.4,0.2-0.5,0.6-0.4,1C820.4,956.8,825.4,958.2,829.1,958.2z"/><path fill="#a72c08" d="M823.4,917.2c0.7,1.8,1.4,3.7,2.2,5.5c0.6,1.7-0.7,3.6-2.3,4.1c-1.9,0.5-3.4-0.6-4-2.3
								c-0.7-1.8-1.4-3.7-2.2-5.5c-0.6-1.7,0.7-3.6,2.3-4.1C821.2,914.4,822.7,915.6,823.4,917.2L823.4,917.2z"/><path fill="#de4d08" d="M811.6,915.8c-0.5,0-1-0.4-1-1c-0.3-5.8,4.2-7.9,6.5-8.2c0.5-0.1,1,0.3,1.1,0.9c0.1,0.5-0.3,1-0.9,1.1
						c-0.2,0-5,0.7-4.8,6.1C812.6,915.3,812.2,915.8,811.6,915.8C811.7,915.8,811.6,915.8,811.6,915.8z"/><path fill="#de4d08" d="M802.9,1046c-0.8,0.3-1.5,0.5-2.2,0.8c-25.9,9.2-26.6,14.7-35.9,11.2c-9.5-3.7-34.1-28.7-23.3-46.6
								c10.9-17.9,13.6-21.1,7.3-25.2s-18.6-20.6-6.3-38.1c12.2-17.4,15.4-20.6,11.8-35.3c-3.6-14.7,6.8-35.5,32-37.1
								c12.4-0.8,20.1,2.4,25.3,7c5.4,4.8,8.2,11.1,11.1,16.3c0,0-25.2-14.8-30.2,10.4c-5,25.2,28.1,43.6,21.7,52.7
								s-16.8,6-18.6,13.3c-1.8,7.3,21.9,13.8,27,33.9C827.8,1029.6,831,1036.4,802.9,1046z"/><path fill="#d93908" d="M787.9,1028.8c4.8,6.3,9.5,12.3,12.9,18c-25.9,9.2-26.6,14.7-35.9,11.2c-9.5-3.7-34.1-28.7-23.3-46.6
							c10.9-17.9,13.6-21.1,7.3-25.2s-18.6-20.6-6.3-38.1c12.2-17.4,15.4-20.6,11.8-35.3c-3.6-14.7,6.8-35.5,32-37.1
							c12.4-0.8,20.1,2.4,25.3,7c-20.5-7.1-34.9,4.5-42.8,20.1c-7.3,14.6-0.5,36.5,0,38.1c3.7,11.5,8,12.2,8.5,20.3
							c1.2,16.7-16,21.9-15.1,36.1C762.9,1007.7,772.3,1008.7,787.9,1028.8z"/></g><g><path fill="#fea58c" d="M940.1,1663.2c0,0-4-10.6-22.5-13.3c0,0-58.2-9.6-60-23s0-201.3,0-201.3s-28.3-44.9-40.8,5
							c-0.9,9.3,0.6,100.6,23.1,191.8c1.6,6.6,2.1,15.5-2.9,27c-3.5,8-3.5,16.5,25.4,12.9C881.6,1659.9,940.1,1663.2,940.1,1663.2z"/><path fill="#60295b" d="M834.7,1610c0,0,6.9,5.3,2.5,27.1c-4.4,21.8-19.2,28.9,11.5,29.5s86.6-3.1,93-1.5
						c6.4,1.5-1.5-16.6-17.8-17.2c-16.3-0.6-76.5-4.6-55-34.4C869,1613.5,849,1620,834.7,1610z"/><path fill="#a9295b" d="M830.8,1663.2c0,0-0.4,0.1,0,5.3s113.3,0,113.3,0l-2.2-3.4L830.8,1663.2z"/></g></g><g><path fill="#470990" d="M1332.1,1401.8c0,0,21.5,38.2,27.1,39s15.8-4.1,13-15.8c-2.8-11.7-20.1-45.8-20.1-45.8L1332.1,1401.8z"/><path fill="#4709d1" d="M1216.4,1088.4c0,0,76.7,324,116,325.8c0,0,36.6-15.2,37.5-34.8c0.9-19.6-77.9-278.8-77.9-278.8
							L1216.4,1088.4z"/><path fill="#270951" d="M1352.7,1437.9c0,0-11.5,34.8-20.6,39c-9.1,4.2-27.3,9.4-29.7,21.6s4.4,11.6,4.4,11.6s25.4,0.1,29-4.8
							c3.6-4.9,54.7-59.1,56.2-64.3c1.6-5.2-19.9-23.8-19.9-23.8L1352.7,1437.9z"/><path fill="#470990" d="M1304.7,1509.7c0,0,26.9,3.3,31,2.6c4-0.7,67.5-70.3,56.2-71.2c-11.3-0.9-61.6,62.9-61.6,62.9
						S1306.1,1506,1304.7,1509.7z"/><path fill="#ea7a5c" d="M1160.6,755.3c0,0-3.7-41.7-17.7-47.4c-14-5.7-32.4,14.6-25.9,20.3c6.5,5.7,28,39.1,28,39.1
							L1160.6,755.3z"/><path fill="#3431ff" d="M1171.9,748.8c0,0,13,78.2,17,90.2c4,12-18.8,30.5-30.3,27.7c-11.5-2.8-22.1-68.6-21.9-84.6
							C1136.9,766.2,1171.9,748.8,1171.9,748.8z"/><path fill="#3431ff" d="M1235.2,930.5c0,0-75.4-58.3-79.7-66c-4.3-7.7,25.3-30.2,33.4-25.5c8.1,4.7,69.7,59.6,67.5,65.1
						C1254.3,909.7,1235.2,930.5,1235.2,930.5z"/><path fill="#470990" d="M1244.4,1512.3c0,0,3.8,1.6,2.7,7.6c-1.1,6-20.7,16.6-28,18.2c-7.3,1.6-16.5,2.2-22,9.3
						c-5.5,7.1-10.4,9.9-22.4,14.1c-12,4.2-31.9,10.8-30.4-6.8L1244.4,1512.3z"/><path fill="#470990" d="M1207.3,1474.4c0,0,2.7,25.8,3.3,30.1c0.7,4.4,25.7,19.8,23.6,4.5c-2.4-17.2,5-47.7,5-47.7l-32.3,6.7
							L1207.3,1474.4z"/><path fill="#5609db" d="M1213.6,1039.1c0,0-23.6,429.4-14.4,433c9.2,3.6,41,8.7,47.6,0c6.7-8.7,38.4-314,38.4-314l3.1-114.8
							L1213.6,1039.1z"/><path fill="#270951" d="M1207.1,1498.4c0,0-31,36.5-57.1,47.6c-17.9,7.7,5.4,14.8,15,11.4c11.7-4.1,46.7-21.3,54.9-24
							c17.4-5.8,27.6-18.5,24.6-21.1c-12.2-10.7-10.3-17.5-10.3-17.5L1207.1,1498.4z"/><g><path fill="#ea7a5c" d="M1260.8,888.9c-2.8,2.2-6.1,4.5-9.4,6.9c-1.8-0.5-3.6-1.3-5.6-2.8c-1.4-1-2.7-2.7-2.4-4.5
							c2.1-13.9-0.4-27.5,1.1-31.5c1.9-5.2,18-12.6,18-12.6S1258.4,875.3,1260.8,888.9z"/><path fill="#fea58c" d="M1231.8,777.5c0,0-31.2,38.3-19.5,70.8c11.7,32.5,57.4-0.4,62.4-4.9c8.3-7.5,12.9-21,12.9-21l-9.7-29.3
							L1231.8,777.5z"/><path fill="#de4d08" d="M1235,843.9c-7.1,0-14.4-6.2-14.8-6.5c-0.3-0.3-0.4-0.8-0.1-1.1c0.3-0.3,0.8-0.4,1.1-0.1
							c0.1,0.1,8.7,7.3,15.7,5.9c2.7-0.6,4.9-2.5,6.5-5.6c0.2-0.4,0.7-0.6,1.1-0.4c0.4,0.2,0.6,0.7,0.4,1.1
							c-1.8,3.6-4.3,5.8-7.6,6.5C1236.5,843.8,1235.8,843.9,1235,843.9z"/><path fill="#5609db" d="M1245.9 815.7c.4-.7.9-1.3 1.3-2 .1-.2.2-.3.4-.5-.2.3-.2.3 0 0 .2-.3.5-.6.8-.9 1.2-1.4 1.5-3.6 0-4.9-1.3-1.2-3.7-1.5-4.9 0-1.3 1.5-2.5 3.1-3.5 4.8-1 1.5-.4 3.9 1.3 4.8C1242.8 817.8 1244.9 817.3 1245.9 815.7L1245.9 815.7zM1225.5 804.9c.4-.7.9-1.3 1.3-2 .1-.2.2-.3.4-.5-.2.3-.2.3 0 0 .2-.3.5-.6.8-.9 1.2-1.4 1.5-3.6 0-4.9-1.3-1.2-3.7-1.5-4.9 0-1.3 1.5-2.5 3.1-3.5 4.8-1 1.5-.4 3.9 1.3 4.8C1222.5 807 1224.5 806.5 1225.5 804.9L1225.5 804.9z"/><path fill="#ea7a5c" d="M1236.8,800c0,0-15.2,10-25.5,14.6c0,0,6.5,15.2,9.8,13.1C1224.2,825.6,1236.8,800,1236.8,800z"/><path fill="#3e1c64" d="M1301.9,801.1c0,0,7.1-11.2-4.2-14.3c-0.7-1.3-1.5-2.5-2.4-3.7c0,0,0,0,0,0s0,0,0,0
						c-0.2-0.3-0.4-0.6-0.7-0.9c-1.7-2.5-5.5-9.2,0.7-12.6c0,0-5.3,2-7.7,5.4c-15.5-13-37.2-16.3-47.6-11.4
						c-2.5,1.2-4.8,2.7-6.8,4.5l0,0c0,0-21.6,12.9-23.5,7.1c0,0-0.3,19,14.7,12.8c0,0.1,0,0.1,0.1,0.2c0,0,0.5-0.3,1.4-0.8
						c0.5-0.3,1.1-0.5,1.6-0.9c0,0,0,0,0,0c3.7-1.8,10-3.9,15.1-0.4c7.6,5.2,11.5,9.2,19.7,11.4c8.2,2.3,0.5,17.6,8.3,20
						c17,5.1,5.4,15.6-5.6,32.9c-3.7,5.8,24.2-11.7,31.5-22.5c5.1-7.4,9.2-23.3,3.6-36.1C1303.5,794.3,1301.8,797.9,1301.9,801.1z"/><path fill="#3e1c64" d="M1256.5 808.9c-.5 0-.9-.3-1-.8-1.7-6.9-11.1-7.2-11.2-7.2-.6 0-1-.5-1-1 0-.6.5-1 1-1 .5 0 11.1.3 13.1 8.7.1.5-.2 1.1-.7 1.2C1256.7 808.9 1256.6 808.9 1256.5 808.9zM1233.6 796.6c-.4 0-.7-.2-.9-.6-.1-.2-2.3-4.7-8.1-4.9-.6 0-1-.5-1-1 0-.6.5-1 1-1 7.1.2 9.7 5.8 9.8 6 .2.5 0 1.1-.5 1.3C1233.8 796.5 1233.7 796.6 1233.6 796.6z"/></g><g><path fill="#403bff" d="M1256.9,1121c-2.1,0.7-4.2,1.2-6.3,1.6c-42.1,8.9-69.3-29.1-69.3-29.1s3.9-29.2,12.3-50.6
							c8.4-21.4,17.3-66.7,24-126.1c2.3-20.4,6.6-45.8,11.3-43.3c5.4,2.9,9.9,8.5,23.2,14.4c6.4,2.8,15,5.7,26.7,8.3
							c10.2,2.3,1.2,13.6,1.2,45.5c0,13.1,19.2,161.4,21.8,173.1C1304.4,1126.6,1293.3,1109.6,1256.9,1121z"/><path fill="#342aff" d="M1256.9,1121c-2.1,0.7-4.2,1.2-6.3,1.6c-14.7-25-9.6-60.1-5.9-85.5c6.5-44.8,22.7-61.9,11.6-87.3
						c-8.2-18.7-22.3-21.5-21.8-34.8c0.3-9.3,16.2-18.4,26.3-26.2c6.4,2.8,6.4,4.7,18.1,7.3c10.2,2.3,1.2,13.6,1.2,45.5
						c0,13.1,19.2,161.4,21.8,173.1C1304.4,1126.6,1293.3,1109.6,1256.9,1121z"/></g><g><path fill="#4063ff" d="M1278.7,913c-1.2-6.9-6.2-12.6-12.8-15c-19.7-7.3-72.8-27-81.2-31.9c-10.3-6-27.7,14.5-25.9,26.8
						c1.9,12.3,57.7,42.7,71.8,45.1C1242.7,940,1282.6,935.8,1278.7,913z"/></g><g><path fill="#a5a816" d="M1246.5 525.8c-.4 3.5-1 7.4-1.8 11.7-4.7 26.3-33.6 57.3-68.1 50.8-2.8-.5-5.5-.9-8-1.3-28.7-3.5-41 5.9-41 5.9-3.3-11.4-2.1-21.1 2.4-29.3 8.5-15.3 28.5-25.1 51.9-30.6 5.8-1.4 11.9-2.5 18-3.3 43.9-6 47.4-28.9 47.4-28.9S1248.8 508.1 1246.5 525.8zM1090.8 604.5c-2.2 1.2-4.5 2.1-6.7 2.7-11.3 3.1-22.5-.7-31.7-6.8-10.4-6.9-18.2-16.7-20.4-23.1-4.6-13.2-11.5-27.4-11.5-27.4s.2 0 .6 0c5.6.1 51 1.5 60.2 16.8.1.1.1.2.2.3C1091 583.2 1090.8 604.5 1090.8 604.5z"/><path fill="#b55724" d="M1149.1,671.5v84c0,7.8-6.4,14.2-14.2,14.2h-22.4c-7.9,0-14.2-6.4-14.2-14.2v-84H1149.1z"/><ellipse cx="1123.7" cy="671.5" fill="#7a3a24" rx="25.4" ry="4.3"/><path fill="#1a8124" d="M1118.5,674.7c-0.1,0-0.1,0-0.2,0c-0.6-0.1-0.9-0.7-0.8-1.2c0.1-0.3,5.4-25.7-6.8-46.2
							c-7.8-13.2-20.8-22.3-33.4-31.1c-7.3-5.1-14.2-9.9-19.9-15.4c-15.3-14.7-38.8-30.8-39.1-30.9c-0.5-0.3-0.6-1-0.3-1.5
							c0.3-0.5,1-0.6,1.5-0.3c0.2,0.2,23.9,16.4,39.3,31.2c5.6,5.4,12.4,10.1,19.6,15.2c12.7,8.9,25.9,18.1,34,31.8
							c12.6,21.2,7.1,47.4,7,47.7C1119.4,674.3,1119,674.7,1118.5,674.7z"/><path fill="#1a8124" d="M1119.7,655.7c-0.5,0-1-0.4-1-0.9c0-0.4-1.2-9.1,0-39.8c1-25.9,26.9-47.1,79.2-64.7
							c25.8-8.7,37.7-23.3,43.1-34.1c5.9-11.7,5.8-21.4,5.8-21.5c0-0.6,0.4-1.1,1-1.1c0.6,0,1.1,0.4,1.1,1c0,0.4,0.2,10.3-5.9,22.4
							c-5.6,11.1-17.9,26.3-44.4,35.3c-51.4,17.3-76.8,37.9-77.7,62.8c-1.2,30.4,0,39.4,0,39.5c0.1,0.6-0.3,1.1-0.9,1.2
							C1119.8,655.7,1119.8,655.7,1119.7,655.7z"/><path fill="#ae4824" d="M1149.1,708.6v46.9c0,7.8-6.4,14.2-14.2,14.2h-4.4c-17.3-6.4-30.9-30-25.3-43.4c2.4-5.8,0.2,1.7,8.2-10.9
						c6.3-9.8,7.2-14.4,10.4-14.6c6.9-0.4,11.2,20,17.6,19.4C1146,719.8,1146.6,708.5,1149.1,708.6z"/><path fill="#949e16" d="M1084.1 607.2c-11.3 3.1-22.5-.7-31.7-6.8 6.6-3 13-5.3 20.4-2.3C1077.1 599.8 1081.4 603.3 1084.1 607.2zM1062.7 564.4c-17.7-3.5-31.3-9.2-41.7-14.5 5.6.1 51 1.5 60.2 16.8.1.1.1.2.2.3C1075.6 566.5 1069.3 565.7 1062.7 564.4zM1168.6 547.6c-12.2 9.6-25.5 13.6-38.6 16.1 8.5-15.3 28.5-25.1 51.9-30.6C1178.8 537.9 1174.7 542.8 1168.6 547.6zM1246.5 525.8c-.4 3.5-1 7.4-1.8 11.7-4.7 26.3-33.6 57.3-68.1 50.8-2.8-.5-5.5-.9-8-1.3 7.7-2.4 16.4-5.8 25.5-10.8C1203.7 570.8 1218.3 555.6 1246.5 525.8z"/></g><g><path fill="#fea58c" d="M1154.8,767.2l-3.9-45c0,0-6-4.1-5.8,18.8c-4.8-10.6-10.6-21-17.5-27.5c-1.4-1.4-3.8-1.2-5,0.4
						c-4.6,5.7-13.9,19.6-8.9,31.6c6.5,15.6,21.8,44,21.8,44l23.1-8.8C1158.6,780.6,1157.3,775.1,1154.8,767.2z"/><path fill="#4063ff" d="M1130.7,791.6c0,0,23.9,96,28.8,103.2c4.9,7.1,32.3-13.6,31-23.3c-1.3-9.7-26.7-90.9-31.8-90.9
							S1130.7,791.6,1130.7,791.6z"/></g></g></g></switch></svg>